M48
;Layer_Color=9474304
;FILE_FORMAT=2:5
INCH,LZ
;TYPE=PLATED
T1F00S00C0.02800
T2F00S00C0.03543
%
T01
X00295Y-00175
X0084732Y-0008768
X-00535Y-00175
X-009Y-00085
T02
X-009Y-01235
Y-01135
Y-01035
Y-00935
Y-00835
Y-00735
Y-00635
Y-00535
Y-00435
X-008
Y-00535
Y-00635
Y-00735
Y-00835
Y-00935
Y-01035
Y-01135
Y-01235
X-001Y-019
X0
X008Y-01235
Y-01135
Y-01035
Y-00935
Y-00835
Y-00735
Y-00635
Y-00535
Y-00435
X009
Y-00535
Y-00635
Y-00735
Y-00835
Y-00935
Y-01035
Y-01135
Y-01235
Y-00335
X008
X0084732Y0099807
Y0109807
X-007Y0114
X-008Y-00335
X-009
X-0086Y0124
Y0134
Y0144
X-0096
Y0134
Y0124
X-007
Y0134
Y0144
X-0016268Y0193307
X-0006268
X0003732
X0013732
X0084732Y0159807
Y0149807
Y0139807
Y0129807
Y0119807
M30
