%FSLAX25Y25*%
%MOIN*%
G70*
G01*
G75*
G04 Layer_Physical_Order=1*
G04 Layer_Color=255*
%ADD10C,0.01969*%
%ADD11C,0.03937*%
%ADD12R,0.07874X0.06693*%
%ADD13O,0.07874X0.06693*%
%ADD14R,0.06693X0.07874*%
%ADD15O,0.06693X0.07874*%
%ADD16P,0.07244X8X112.5*%
%ADD17C,0.06693*%
%ADD18C,0.07874*%
%ADD19O,0.07874X0.05906*%
%ADD20C,0.05906*%
%ADD21R,0.07874X0.07874*%
%ADD22C,0.05000*%
D10*
X84465Y-8500D02*
X84732Y-8768D01*
X-90000Y-8500D02*
X84465D01*
D11*
X-53500Y-17500D02*
X29500D01*
D12*
X-70000Y114000D02*
D03*
X84732Y99807D02*
D03*
D13*
X-70000Y124000D02*
D03*
Y134000D02*
D03*
Y144000D02*
D03*
X84732Y119807D02*
D03*
Y109807D02*
D03*
Y129807D02*
D03*
Y139807D02*
D03*
Y149807D02*
D03*
Y159807D02*
D03*
X-86000Y134000D02*
D03*
Y144000D02*
D03*
X-96000Y134000D02*
D03*
Y144000D02*
D03*
D14*
X-10000Y-190000D02*
D03*
X13732Y193307D02*
D03*
D15*
X0Y-190000D02*
D03*
X3732Y193307D02*
D03*
X-6268D02*
D03*
X-16268D02*
D03*
D16*
X-86000Y124000D02*
D03*
D17*
X-96000D02*
D03*
D18*
X80000Y-123500D02*
D03*
Y-113500D02*
D03*
Y-103500D02*
D03*
Y-93500D02*
D03*
Y-83500D02*
D03*
Y-73500D02*
D03*
Y-43500D02*
D03*
Y-33500D02*
D03*
X90000Y-123500D02*
D03*
Y-113500D02*
D03*
Y-103500D02*
D03*
Y-93500D02*
D03*
Y-83500D02*
D03*
Y-73500D02*
D03*
Y-43500D02*
D03*
Y-33500D02*
D03*
X-90000Y-123500D02*
D03*
X-80000D02*
D03*
Y-43500D02*
D03*
D19*
X80000Y-63500D02*
D03*
Y-53500D02*
D03*
X90000Y-63500D02*
D03*
Y-53500D02*
D03*
X-80000Y-113500D02*
D03*
Y-103500D02*
D03*
Y-73500D02*
D03*
Y-63500D02*
D03*
D20*
X-90000Y-113500D02*
D03*
Y-103500D02*
D03*
Y-93500D02*
D03*
Y-83500D02*
D03*
Y-73500D02*
D03*
Y-63500D02*
D03*
Y-53500D02*
D03*
Y-43500D02*
D03*
X-80000Y-93500D02*
D03*
Y-83500D02*
D03*
Y-53500D02*
D03*
D21*
X-90000Y-33500D02*
D03*
X-80000D02*
D03*
D22*
X84732Y-8768D02*
D03*
X29500Y-17500D02*
D03*
X-53500D02*
D03*
X-90000Y-8500D02*
D03*
M02*
