%FSLAX25Y25*%
%MOIN*%
G70*
G01*
G75*
G04 Layer_Physical_Order=2*
G04 Layer_Color=16711680*
%ADD10C,0.01969*%
%ADD11C,0.03937*%
%ADD12R,0.07874X0.06693*%
%ADD13O,0.07874X0.06693*%
%ADD14R,0.06693X0.07874*%
%ADD15O,0.06693X0.07874*%
%ADD16P,0.07244X8X112.5*%
%ADD17C,0.06693*%
%ADD18C,0.07874*%
%ADD19O,0.07874X0.05906*%
%ADD20C,0.05906*%
%ADD21R,0.07874X0.07874*%
%ADD22C,0.05000*%
%ADD23O,0.05906X0.02362*%
%ADD24R,0.07087X0.05906*%
%ADD25R,0.04331X0.05906*%
%ADD26R,0.05906X0.04331*%
%ADD27C,0.01181*%
G36*
X75714Y190945D02*
X75698D01*
X75842Y188749D01*
X76271Y186591D01*
X76979Y184508D01*
X77952Y182534D01*
X79174Y180705D01*
X80625Y179050D01*
X82279Y177600D01*
X84109Y176377D01*
X86082Y175404D01*
X88166Y174697D01*
X90324Y174267D01*
X92520Y174124D01*
Y174139D01*
X107210D01*
Y-174139D01*
X92520D01*
Y-174124D01*
X90324Y-174267D01*
X88166Y-174697D01*
X86082Y-175404D01*
X84109Y-176377D01*
X82279Y-177600D01*
X80625Y-179050D01*
X79174Y-180705D01*
X77952Y-182534D01*
X76979Y-184508D01*
X76271Y-186591D01*
X75842Y-188749D01*
X75698Y-190945D01*
X75714D01*
Y-205635D01*
X-75714D01*
Y-190945D01*
X-75698D01*
X-75842Y-188749D01*
X-76271Y-186591D01*
X-76979Y-184508D01*
X-77952Y-182534D01*
X-79174Y-180705D01*
X-80625Y-179050D01*
X-82279Y-177600D01*
X-84109Y-176377D01*
X-86082Y-175404D01*
X-88166Y-174697D01*
X-90324Y-174267D01*
X-92520Y-174124D01*
Y-174139D01*
X-107210D01*
Y174139D01*
X-92520D01*
Y174124D01*
X-90324Y174267D01*
X-88166Y174697D01*
X-86082Y175404D01*
X-84109Y176377D01*
X-82279Y177600D01*
X-80625Y179050D01*
X-79174Y180705D01*
X-77952Y182534D01*
X-76979Y184508D01*
X-76271Y186591D01*
X-75842Y188749D01*
X-75698Y190945D01*
X-75714D01*
Y205635D01*
X75714D01*
Y190945D01*
D02*
G37*
%LPC*%
G36*
X-90000Y-69728D02*
X-90976Y-69856D01*
X-91886Y-70233D01*
X-92668Y-70833D01*
X-93267Y-71614D01*
X-93644Y-72524D01*
X-93772Y-73500D01*
X-93644Y-74476D01*
X-93267Y-75386D01*
X-92668Y-76168D01*
X-91886Y-76767D01*
X-90976Y-77144D01*
X-90000Y-77272D01*
X-89024Y-77144D01*
X-88114Y-76767D01*
X-87332Y-76168D01*
X-86733Y-75386D01*
X-86356Y-74476D01*
X-86228Y-73500D01*
X-86356Y-72524D01*
X-86733Y-71614D01*
X-87332Y-70833D01*
X-88114Y-70233D01*
X-89024Y-69856D01*
X-90000Y-69728D01*
D02*
G37*
G36*
X-80000Y-79728D02*
X-80976Y-79856D01*
X-81886Y-80233D01*
X-82667Y-80832D01*
X-83267Y-81614D01*
X-83644Y-82524D01*
X-83772Y-83500D01*
X-83644Y-84476D01*
X-83267Y-85386D01*
X-82667Y-86168D01*
X-81886Y-86767D01*
X-80976Y-87144D01*
X-80000Y-87272D01*
X-79024Y-87144D01*
X-78114Y-86767D01*
X-77333Y-86168D01*
X-76733Y-85386D01*
X-76356Y-84476D01*
X-76228Y-83500D01*
X-76356Y-82524D01*
X-76733Y-81614D01*
X-77333Y-80832D01*
X-78114Y-80233D01*
X-79024Y-79856D01*
X-80000Y-79728D01*
D02*
G37*
G36*
X-90000D02*
X-90976Y-79856D01*
X-91886Y-80233D01*
X-92668Y-80832D01*
X-93267Y-81614D01*
X-93644Y-82524D01*
X-93772Y-83500D01*
X-93644Y-84476D01*
X-93267Y-85386D01*
X-92668Y-86168D01*
X-91886Y-86767D01*
X-90976Y-87144D01*
X-90000Y-87272D01*
X-89024Y-87144D01*
X-88114Y-86767D01*
X-87332Y-86168D01*
X-86733Y-85386D01*
X-86356Y-84476D01*
X-86228Y-83500D01*
X-86356Y-82524D01*
X-86733Y-81614D01*
X-87332Y-80832D01*
X-88114Y-80233D01*
X-89024Y-79856D01*
X-90000Y-79728D01*
D02*
G37*
G36*
X90000Y-68735D02*
X88767Y-68897D01*
X87617Y-69373D01*
X86630Y-70130D01*
X85873Y-71117D01*
X85397Y-72267D01*
X85250Y-73385D01*
X85250D01*
X84850D01*
X84737Y-73286D01*
X84603Y-72267D01*
X84127Y-71117D01*
X83369Y-70130D01*
X82383Y-69373D01*
X81233Y-68897D01*
X80000Y-68735D01*
X78767Y-68897D01*
X77617Y-69373D01*
X76631Y-70130D01*
X75873Y-71117D01*
X75397Y-72267D01*
X75235Y-73500D01*
X75397Y-74733D01*
X75873Y-75883D01*
X76631Y-76869D01*
X77617Y-77627D01*
X78767Y-78103D01*
X79750Y-78232D01*
X79750D01*
X79885Y-78250D01*
Y-78750D01*
X78767Y-78897D01*
X77617Y-79373D01*
X76631Y-80130D01*
X75873Y-81117D01*
X75397Y-82267D01*
X75235Y-83500D01*
X75397Y-84733D01*
X75873Y-85883D01*
X76631Y-86870D01*
X77617Y-87627D01*
X78767Y-88103D01*
X79750Y-88232D01*
X79750D01*
X79885Y-88250D01*
Y-88750D01*
X78767Y-88897D01*
X77617Y-89373D01*
X76631Y-90131D01*
X75873Y-91117D01*
X75397Y-92267D01*
X75235Y-93500D01*
X75397Y-94733D01*
X75873Y-95883D01*
X76631Y-96869D01*
X77617Y-97627D01*
X78767Y-98103D01*
X79750Y-98232D01*
X79750D01*
X79885Y-98250D01*
Y-98750D01*
X78767Y-98897D01*
X77617Y-99373D01*
X76631Y-100130D01*
X75873Y-101117D01*
X75397Y-102267D01*
X75235Y-103500D01*
X75397Y-104733D01*
X75873Y-105883D01*
X76631Y-106869D01*
X77617Y-107627D01*
X78767Y-108103D01*
X79750Y-108232D01*
X79750D01*
X79885Y-108250D01*
Y-108750D01*
X78767Y-108897D01*
X77617Y-109373D01*
X76631Y-110131D01*
X75873Y-111117D01*
X75397Y-112267D01*
X75235Y-113500D01*
X75397Y-114733D01*
X75873Y-115883D01*
X76631Y-116869D01*
X77617Y-117627D01*
X78767Y-118103D01*
X79750Y-118232D01*
X79750D01*
X79885Y-118250D01*
Y-118750D01*
X78767Y-118897D01*
X77617Y-119373D01*
X76631Y-120131D01*
X75873Y-121117D01*
X75397Y-122267D01*
X75235Y-123500D01*
X75397Y-124733D01*
X75873Y-125883D01*
X76631Y-126869D01*
X77617Y-127627D01*
X78767Y-128103D01*
X80000Y-128265D01*
X81233Y-128103D01*
X82383Y-127627D01*
X83369Y-126869D01*
X84127Y-125883D01*
X84603Y-124733D01*
X84750Y-123615D01*
X85250D01*
X85397Y-124733D01*
X85873Y-125883D01*
X86630Y-126869D01*
X87617Y-127627D01*
X88767Y-128103D01*
X90000Y-128265D01*
X91233Y-128103D01*
X92383Y-127627D01*
X93370Y-126869D01*
X94127Y-125883D01*
X94603Y-124733D01*
X94765Y-123500D01*
X94603Y-122267D01*
X94127Y-121117D01*
X93370Y-120131D01*
X92383Y-119373D01*
X91233Y-118897D01*
X90115Y-118750D01*
Y-118250D01*
X90250Y-118232D01*
X90250D01*
X91233Y-118103D01*
X92383Y-117627D01*
X93370Y-116869D01*
X94127Y-115883D01*
X94603Y-114733D01*
X94765Y-113500D01*
X94603Y-112267D01*
X94127Y-111117D01*
X93370Y-110131D01*
X92383Y-109373D01*
X91233Y-108897D01*
X90115Y-108750D01*
Y-108250D01*
X90250Y-108232D01*
X90250D01*
X91233Y-108103D01*
X92383Y-107627D01*
X93370Y-106869D01*
X94127Y-105883D01*
X94603Y-104733D01*
X94765Y-103500D01*
X94603Y-102267D01*
X94127Y-101117D01*
X93370Y-100130D01*
X92383Y-99373D01*
X91233Y-98897D01*
X90115Y-98750D01*
Y-98250D01*
X90250Y-98232D01*
X90250D01*
X91233Y-98103D01*
X92383Y-97627D01*
X93370Y-96869D01*
X94127Y-95883D01*
X94603Y-94733D01*
X94765Y-93500D01*
X94603Y-92267D01*
X94127Y-91117D01*
X93370Y-90131D01*
X92383Y-89373D01*
X91233Y-88897D01*
X90115Y-88750D01*
Y-88250D01*
X90250Y-88232D01*
X90250D01*
X91233Y-88103D01*
X92383Y-87627D01*
X93370Y-86870D01*
X94127Y-85883D01*
X94603Y-84733D01*
X94765Y-83500D01*
X94603Y-82267D01*
X94127Y-81117D01*
X93370Y-80130D01*
X92383Y-79373D01*
X91233Y-78897D01*
X90115Y-78750D01*
Y-78250D01*
X90250Y-78232D01*
X90250D01*
X91233Y-78103D01*
X92383Y-77627D01*
X93370Y-76869D01*
X94127Y-75883D01*
X94603Y-74733D01*
X94765Y-73500D01*
X94603Y-72267D01*
X94127Y-71117D01*
X93370Y-70130D01*
X92383Y-69373D01*
X91233Y-68897D01*
X90000Y-68735D01*
D02*
G37*
G36*
X-90000Y-49728D02*
X-90976Y-49856D01*
X-91886Y-50233D01*
X-92668Y-50832D01*
X-93267Y-51614D01*
X-93644Y-52524D01*
X-93772Y-53500D01*
X-93644Y-54476D01*
X-93267Y-55386D01*
X-92668Y-56168D01*
X-91886Y-56767D01*
X-90976Y-57144D01*
X-90000Y-57272D01*
X-89024Y-57144D01*
X-88114Y-56767D01*
X-87332Y-56168D01*
X-86733Y-55386D01*
X-86356Y-54476D01*
X-86228Y-53500D01*
X-86356Y-52524D01*
X-86733Y-51614D01*
X-87332Y-50832D01*
X-88114Y-50233D01*
X-89024Y-49856D01*
X-90000Y-49728D01*
D02*
G37*
G36*
X85323Y133977D02*
X84142D01*
X83063Y133835D01*
X82057Y133418D01*
X81193Y132755D01*
X80531Y131892D01*
X80114Y130886D01*
X79972Y129807D01*
X80114Y128728D01*
X80531Y127722D01*
X81193Y126859D01*
X82057Y126196D01*
X83063Y125780D01*
X84142Y125638D01*
X85323D01*
X86402Y125780D01*
X87408Y126196D01*
X88271Y126859D01*
X88934Y127722D01*
X89215Y128402D01*
X97111D01*
X101595Y123918D01*
Y123000D01*
Y107500D01*
Y-47000D01*
Y-50500D01*
Y-56418D01*
X95918Y-62095D01*
X94451D01*
X94251Y-61614D01*
X93652Y-60833D01*
X92870Y-60233D01*
X91961Y-59856D01*
X90984Y-59728D01*
X89016D01*
X88039Y-59856D01*
X87129Y-60233D01*
X86348Y-60833D01*
X85749Y-61614D01*
X85372Y-62524D01*
X85250Y-63449D01*
X85250D01*
X84980D01*
X84720Y-63221D01*
X84628Y-62524D01*
X84251Y-61614D01*
X83652Y-60833D01*
X82871Y-60233D01*
X81961Y-59856D01*
X80984Y-59728D01*
X79016D01*
X78039Y-59856D01*
X77130Y-60233D01*
X76348Y-60833D01*
X75749Y-61614D01*
X75372Y-62524D01*
X75243Y-63500D01*
X75372Y-64476D01*
X75749Y-65386D01*
X76348Y-66167D01*
X77130Y-66767D01*
X78039Y-67144D01*
X79016Y-67272D01*
X80984D01*
X81961Y-67144D01*
X82871Y-66767D01*
X83652Y-66167D01*
X84251Y-65386D01*
X84628Y-64476D01*
X84750Y-63551D01*
X85020D01*
X85280Y-63779D01*
X85372Y-64476D01*
X85749Y-65386D01*
X86348Y-66167D01*
X87129Y-66767D01*
X88039Y-67144D01*
X89016Y-67272D01*
X90984D01*
X91961Y-67144D01*
X92870Y-66767D01*
X93652Y-66167D01*
X94251Y-65386D01*
X94451Y-64905D01*
X96500D01*
X97038Y-64798D01*
X97493Y-64493D01*
X103993Y-57993D01*
X104298Y-57538D01*
X104405Y-57000D01*
X104405Y-57000D01*
X104405Y-57000D01*
Y-57000D01*
Y-47000D01*
Y107500D01*
Y124500D01*
X104298Y125038D01*
X103993Y125494D01*
X98686Y130800D01*
X98231Y131105D01*
X97693Y131212D01*
X89215D01*
X88934Y131892D01*
X88271Y132755D01*
X87408Y133418D01*
X86402Y133835D01*
X85323Y133977D01*
D02*
G37*
G36*
X-90000Y-59728D02*
X-90976Y-59856D01*
X-91886Y-60233D01*
X-92668Y-60833D01*
X-93267Y-61614D01*
X-93644Y-62524D01*
X-93772Y-63500D01*
X-93644Y-64476D01*
X-93267Y-65386D01*
X-92668Y-66167D01*
X-91886Y-66767D01*
X-90976Y-67144D01*
X-90000Y-67272D01*
X-89024Y-67144D01*
X-88114Y-66767D01*
X-87332Y-66167D01*
X-86733Y-65386D01*
X-86356Y-64476D01*
X-86228Y-63500D01*
X-86356Y-62524D01*
X-86733Y-61614D01*
X-87332Y-60833D01*
X-88114Y-60233D01*
X-89024Y-59856D01*
X-90000Y-59728D01*
D02*
G37*
G36*
Y-109728D02*
X-90976Y-109856D01*
X-91886Y-110233D01*
X-92668Y-110833D01*
X-93267Y-111614D01*
X-93644Y-112524D01*
X-93772Y-113500D01*
X-93644Y-114476D01*
X-93267Y-115386D01*
X-92668Y-116167D01*
X-91886Y-116767D01*
X-90976Y-117144D01*
X-90000Y-117272D01*
X-89024Y-117144D01*
X-88114Y-116767D01*
X-87332Y-116167D01*
X-86733Y-115386D01*
X-86356Y-114476D01*
X-86228Y-113500D01*
X-86356Y-112524D01*
X-86733Y-111614D01*
X-87332Y-110833D01*
X-88114Y-110233D01*
X-89024Y-109856D01*
X-90000Y-109728D01*
D02*
G37*
G36*
X-80000Y-118735D02*
X-81233Y-118897D01*
X-82383Y-119373D01*
X-83369Y-120131D01*
X-84127Y-121117D01*
X-84603Y-122267D01*
X-84750Y-123385D01*
X-84750D01*
X-85150D01*
X-85263Y-123286D01*
X-85397Y-122267D01*
X-85873Y-121117D01*
X-86630Y-120131D01*
X-87617Y-119373D01*
X-88767Y-118897D01*
X-90000Y-118735D01*
X-91233Y-118897D01*
X-92383Y-119373D01*
X-93370Y-120131D01*
X-94127Y-121117D01*
X-94603Y-122267D01*
X-94765Y-123500D01*
X-94603Y-124733D01*
X-94127Y-125883D01*
X-93370Y-126869D01*
X-92383Y-127627D01*
X-91233Y-128103D01*
X-90000Y-128265D01*
X-88767Y-128103D01*
X-87617Y-127627D01*
X-86630Y-126869D01*
X-85873Y-125883D01*
X-85397Y-124733D01*
X-85250Y-123615D01*
X-84850D01*
X-84737Y-123714D01*
X-84603Y-124733D01*
X-84127Y-125883D01*
X-83369Y-126869D01*
X-82383Y-127627D01*
X-81233Y-128103D01*
X-80000Y-128265D01*
X-78767Y-128103D01*
X-77617Y-127627D01*
X-76631Y-126869D01*
X-75873Y-125883D01*
X-75397Y-124733D01*
X-75235Y-123500D01*
X-75397Y-122267D01*
X-75873Y-121117D01*
X-76631Y-120131D01*
X-77617Y-119373D01*
X-78767Y-118897D01*
X-80000Y-118735D01*
D02*
G37*
G36*
X-5866Y-185276D02*
X-14134D01*
Y-187220D01*
X-27669D01*
Y-186260D01*
X-36331D01*
Y-193740D01*
X-27669D01*
Y-192780D01*
X-14134D01*
Y-194724D01*
X-5866D01*
Y-185276D01*
D02*
G37*
G36*
X7827Y201019D02*
X-29787D01*
X-30479Y200882D01*
X-31065Y200490D01*
X-79277Y152277D01*
X-79669Y151691D01*
X-79806Y151000D01*
Y132000D01*
X-79806Y132000D01*
X-79806D01*
X-79669Y131309D01*
X-79277Y130723D01*
X-74330Y125775D01*
X-74618Y125079D01*
X-74760Y124000D01*
X-74618Y122921D01*
X-74202Y121915D01*
X-73539Y121052D01*
X-72675Y120389D01*
X-71670Y119973D01*
X-70591Y119831D01*
X-69409D01*
X-68330Y119973D01*
X-67325Y120389D01*
X-66461Y121052D01*
X-65798Y121915D01*
X-65382Y122921D01*
X-65240Y124000D01*
X-65382Y125079D01*
X-65798Y126085D01*
X-66461Y126948D01*
X-67325Y127611D01*
X-68330Y128027D01*
X-69409Y128170D01*
X-70591D01*
X-71496Y128050D01*
X-76194Y132748D01*
Y150252D01*
X-29039Y197406D01*
X-9264D01*
X-9103Y196933D01*
X-9216Y196846D01*
X-9879Y195982D01*
X-10295Y194977D01*
X-10437Y193898D01*
Y192717D01*
X-10295Y191637D01*
X-9879Y190632D01*
X-9216Y189768D01*
X-8353Y189106D01*
X-8074Y188990D01*
Y171268D01*
X-8074Y171268D01*
X-8074D01*
X-7937Y170576D01*
X-7545Y169990D01*
X194Y162252D01*
Y-54000D01*
Y-57500D01*
Y-63252D01*
X-38248Y-101694D01*
X-75716D01*
X-75749Y-101614D01*
X-76348Y-100832D01*
X-77130Y-100233D01*
X-78039Y-99856D01*
X-79016Y-99728D01*
X-80984D01*
X-81961Y-99856D01*
X-82871Y-100233D01*
X-83652Y-100832D01*
X-84251Y-101614D01*
X-84628Y-102524D01*
X-84757Y-103500D01*
X-84628Y-104476D01*
X-84251Y-105386D01*
X-83652Y-106167D01*
X-82871Y-106767D01*
X-81961Y-107144D01*
X-80984Y-107272D01*
X-79016D01*
X-78039Y-107144D01*
X-77130Y-106767D01*
X-76348Y-106167D01*
X-75749Y-105386D01*
X-75716Y-105306D01*
X-37500D01*
X-36809Y-105169D01*
X-36223Y-104777D01*
X3277Y-65277D01*
X3669Y-64691D01*
X3806Y-64000D01*
X3806Y-64000D01*
X3806Y-64000D01*
Y-64000D01*
Y-54000D01*
Y163000D01*
X3669Y163691D01*
X3277Y164277D01*
X-4461Y172016D01*
Y188990D01*
X-4183Y189106D01*
X-3319Y189768D01*
X-2657Y190632D01*
X-2240Y191637D01*
X-2098Y192717D01*
Y193898D01*
X-2240Y194977D01*
X-2657Y195982D01*
X-3319Y196846D01*
X-3433Y196933D01*
X-3272Y197406D01*
X736D01*
X897Y196933D01*
X784Y196846D01*
X121Y195982D01*
X-295Y194977D01*
X-437Y193898D01*
Y192717D01*
X-295Y191637D01*
X121Y190632D01*
X784Y189768D01*
X1647Y189106D01*
X1926Y188990D01*
Y174268D01*
X1926Y174268D01*
X1926D01*
X2063Y173576D01*
X2455Y172990D01*
X10694Y164752D01*
Y-75252D01*
X-25748Y-111694D01*
X-75716D01*
X-75749Y-111614D01*
X-76348Y-110833D01*
X-77130Y-110233D01*
X-78039Y-109856D01*
X-79016Y-109728D01*
X-80984D01*
X-81961Y-109856D01*
X-82871Y-110233D01*
X-83652Y-110833D01*
X-84251Y-111614D01*
X-84628Y-112524D01*
X-84757Y-113500D01*
X-84628Y-114476D01*
X-84251Y-115386D01*
X-83652Y-116167D01*
X-82871Y-116767D01*
X-81961Y-117144D01*
X-80984Y-117272D01*
X-79016D01*
X-78039Y-117144D01*
X-77130Y-116767D01*
X-76348Y-116167D01*
X-75749Y-115386D01*
X-75716Y-115306D01*
X-25000D01*
X-24309Y-115169D01*
X-23723Y-114777D01*
X13777Y-77277D01*
X14169Y-76691D01*
X14306Y-76000D01*
X14306Y-76000D01*
X14306Y-76000D01*
Y-76000D01*
Y165500D01*
X14169Y166191D01*
X13777Y166777D01*
X5539Y175016D01*
Y188990D01*
X5817Y189106D01*
X6681Y189768D01*
X7343Y190632D01*
X7760Y191637D01*
X7902Y192717D01*
Y193898D01*
X7760Y194977D01*
X7343Y195982D01*
X6681Y196846D01*
X6567Y196933D01*
X6665Y197220D01*
X7152Y197333D01*
X9598Y194886D01*
Y188583D01*
X17866D01*
Y190527D01*
X26720D01*
Y-4500D01*
Y-11000D01*
Y-15722D01*
X26629Y-15842D01*
X26297Y-16642D01*
X26184Y-17500D01*
X26297Y-18358D01*
X26629Y-19158D01*
X26720Y-19278D01*
Y-105601D01*
X-33966Y-166286D01*
X-34407Y-166862D01*
X-34685Y-167533D01*
X-34780Y-168252D01*
Y-170512D01*
X-36331D01*
Y-177992D01*
X-27669D01*
Y-170512D01*
X-29220D01*
Y-169403D01*
X31466Y-108718D01*
X31466Y-108718D01*
X31466Y-108718D01*
X31907Y-108142D01*
X32185Y-107471D01*
X32280Y-106752D01*
Y-19278D01*
X32372Y-19158D01*
X32703Y-18358D01*
X32816Y-17500D01*
X32703Y-16642D01*
X32372Y-15842D01*
X32280Y-15722D01*
Y-4500D01*
Y189567D01*
X32748D01*
Y197047D01*
X26842D01*
Y196087D01*
X17866D01*
Y198031D01*
X11562D01*
X9104Y200490D01*
X8518Y200882D01*
X7827Y201019D01*
D02*
G37*
G36*
X-80000Y-89728D02*
X-80976Y-89856D01*
X-81886Y-90233D01*
X-82667Y-90833D01*
X-83267Y-91614D01*
X-83644Y-92524D01*
X-83772Y-93500D01*
X-83644Y-94476D01*
X-83267Y-95386D01*
X-82667Y-96167D01*
X-81886Y-96767D01*
X-80976Y-97144D01*
X-80000Y-97272D01*
X-79024Y-97144D01*
X-78114Y-96767D01*
X-77333Y-96167D01*
X-76733Y-95386D01*
X-76356Y-94476D01*
X-76228Y-93500D01*
X-76356Y-92524D01*
X-76733Y-91614D01*
X-77333Y-90833D01*
X-78114Y-90233D01*
X-79024Y-89856D01*
X-80000Y-89728D01*
D02*
G37*
G36*
X-90000D02*
X-90976Y-89856D01*
X-91886Y-90233D01*
X-92668Y-90833D01*
X-93267Y-91614D01*
X-93644Y-92524D01*
X-93772Y-93500D01*
X-93644Y-94476D01*
X-93267Y-95386D01*
X-92668Y-96167D01*
X-91886Y-96767D01*
X-90976Y-97144D01*
X-90000Y-97272D01*
X-89024Y-97144D01*
X-88114Y-96767D01*
X-87332Y-96167D01*
X-86733Y-95386D01*
X-86356Y-94476D01*
X-86228Y-93500D01*
X-86356Y-92524D01*
X-86733Y-91614D01*
X-87332Y-90833D01*
X-88114Y-90233D01*
X-89024Y-89856D01*
X-90000Y-89728D01*
D02*
G37*
G36*
Y-99728D02*
X-90976Y-99856D01*
X-91886Y-100233D01*
X-92668Y-100832D01*
X-93267Y-101614D01*
X-93644Y-102524D01*
X-93772Y-103500D01*
X-93644Y-104476D01*
X-93267Y-105386D01*
X-92668Y-106167D01*
X-91886Y-106767D01*
X-90976Y-107144D01*
X-90000Y-107272D01*
X-89024Y-107144D01*
X-88114Y-106767D01*
X-87332Y-106167D01*
X-86733Y-105386D01*
X-86356Y-104476D01*
X-86228Y-103500D01*
X-86356Y-102524D01*
X-86733Y-101614D01*
X-87332Y-100832D01*
X-88114Y-100233D01*
X-89024Y-99856D01*
X-90000Y-99728D01*
D02*
G37*
G36*
X-72378Y50547D02*
X-78284D01*
Y43067D01*
X-74068D01*
X-73715Y42831D01*
X-73024Y42694D01*
X-59438D01*
X-59367Y42646D01*
X-58598Y42493D01*
X-55055D01*
X-54287Y42646D01*
X-53636Y43081D01*
X-53201Y43732D01*
X-53048Y44500D01*
X-53201Y45268D01*
X-53636Y45919D01*
X-54287Y46354D01*
X-55055Y46507D01*
X-58598D01*
X-59367Y46354D01*
X-59438Y46306D01*
X-72275D01*
X-72378Y46409D01*
Y50547D01*
D02*
G37*
G36*
X-80252D02*
X-86158D01*
Y43067D01*
X-85011D01*
Y41705D01*
X-84874Y41014D01*
X-84482Y40427D01*
X-82277Y38223D01*
X-81691Y37831D01*
X-81000Y37694D01*
X-59438D01*
X-59367Y37646D01*
X-58598Y37493D01*
X-55055D01*
X-54287Y37646D01*
X-53636Y38081D01*
X-53201Y38732D01*
X-53048Y39500D01*
X-53201Y40268D01*
X-53636Y40919D01*
X-54287Y41354D01*
X-55055Y41507D01*
X-58598D01*
X-59367Y41354D01*
X-59438Y41306D01*
X-80252D01*
X-81398Y42453D01*
Y43067D01*
X-80252D01*
Y50547D01*
D02*
G37*
G36*
X-55055Y36507D02*
X-58598D01*
X-59367Y36354D01*
X-59438Y36306D01*
X-72638D01*
X-73329Y36169D01*
X-73915Y35777D01*
X-74145Y35547D01*
X-78284D01*
Y28067D01*
X-72378D01*
Y32205D01*
X-71890Y32694D01*
X-59438D01*
X-59367Y32646D01*
X-58598Y32493D01*
X-55055D01*
X-54287Y32646D01*
X-53636Y33081D01*
X-53201Y33732D01*
X-53048Y34500D01*
X-53201Y35268D01*
X-53636Y35919D01*
X-54287Y36354D01*
X-55055Y36507D01*
D02*
G37*
G36*
X-72378Y65547D02*
X-78284D01*
Y58067D01*
X-75121D01*
X-65277Y48223D01*
X-65277D01*
X-65277Y48223D01*
X-65277D01*
X-65277Y48223D01*
Y48223D01*
X-65277Y48223D01*
Y48223D01*
X-64691Y47831D01*
X-64000Y47694D01*
X-59438D01*
X-59367Y47646D01*
X-58598Y47493D01*
X-55055D01*
X-54287Y47646D01*
X-53636Y48081D01*
X-53201Y48732D01*
X-53048Y49500D01*
X-53201Y50268D01*
X-53636Y50919D01*
X-54287Y51354D01*
X-55055Y51507D01*
X-58598D01*
X-59367Y51354D01*
X-59438Y51306D01*
X-63252D01*
X-72378Y60432D01*
Y65547D01*
D02*
G37*
G36*
X85323Y163977D02*
X84142D01*
X83063Y163835D01*
X82057Y163418D01*
X81193Y162755D01*
X80531Y161892D01*
X80415Y161613D01*
X76807D01*
X76116Y161476D01*
X75530Y161084D01*
X72223Y157777D01*
X71831Y157191D01*
X71694Y156500D01*
Y143614D01*
X71694Y143614D01*
X71694D01*
X71831Y142923D01*
X72223Y142337D01*
X74752Y139807D01*
X72723Y137777D01*
X72331Y137191D01*
X72194Y136500D01*
Y103500D01*
X72194Y103500D01*
X72194D01*
X72331Y102809D01*
X72723Y102223D01*
X76416Y98530D01*
D01*
X76416D01*
X76416Y98530D01*
X76416Y98530D01*
X76416D01*
D01*
X76416D01*
X76416Y98530D01*
Y98530D01*
X76416Y98530D01*
Y98530D01*
X77002Y98138D01*
X77693Y98001D01*
X80008D01*
Y95673D01*
X82926D01*
Y91240D01*
X80984D01*
Y83760D01*
X82926D01*
Y-6010D01*
X82388Y-6423D01*
X81861Y-7110D01*
X81529Y-7909D01*
X81416Y-8768D01*
X81529Y-9626D01*
X81861Y-10426D01*
X82388Y-11112D01*
X83074Y-11639D01*
X83874Y-11970D01*
X84732Y-12083D01*
X85590Y-11970D01*
X86390Y-11639D01*
X87077Y-11112D01*
X87604Y-10426D01*
X87935Y-9626D01*
X88048Y-8768D01*
X87935Y-7909D01*
X87604Y-7110D01*
X87077Y-6423D01*
X86539Y-6010D01*
Y83760D01*
X86890D01*
Y91240D01*
X86539D01*
Y95673D01*
X89457D01*
Y103941D01*
X80008D01*
Y101613D01*
X78441D01*
X75806Y104248D01*
Y135752D01*
X78055Y138001D01*
X80415D01*
X80531Y137722D01*
X81193Y136859D01*
X82057Y136196D01*
X83063Y135780D01*
X84142Y135638D01*
X85323D01*
X86402Y135780D01*
X87408Y136196D01*
X88271Y136859D01*
X88934Y137722D01*
X89350Y138728D01*
X89492Y139807D01*
X89350Y140886D01*
X88934Y141892D01*
X88271Y142755D01*
X87408Y143418D01*
X86402Y143834D01*
X85323Y143977D01*
X84142D01*
X83063Y143834D01*
X82057Y143418D01*
X81193Y142755D01*
X80531Y141892D01*
X80415Y141613D01*
X78055D01*
X75306Y144362D01*
Y155752D01*
X77555Y158001D01*
X80415D01*
X80531Y157722D01*
X81193Y156859D01*
X82057Y156196D01*
X83063Y155780D01*
X84142Y155638D01*
X85323D01*
X86402Y155780D01*
X87408Y156196D01*
X88271Y156859D01*
X88934Y157722D01*
X89350Y158728D01*
X89492Y159807D01*
X89350Y160886D01*
X88934Y161892D01*
X88271Y162755D01*
X87408Y163418D01*
X86402Y163835D01*
X85323Y163977D01*
D02*
G37*
G36*
Y153977D02*
X84142D01*
X83063Y153834D01*
X82057Y153418D01*
X81193Y152755D01*
X80531Y151892D01*
X80114Y150886D01*
X79972Y149807D01*
X80114Y148728D01*
X80531Y147722D01*
X81193Y146859D01*
X82057Y146196D01*
X83063Y145780D01*
X84142Y145638D01*
X85323D01*
X86402Y145780D01*
X87408Y146196D01*
X88271Y146859D01*
X88934Y147722D01*
X89350Y148728D01*
X89492Y149807D01*
X89350Y150886D01*
X88934Y151892D01*
X88271Y152755D01*
X87408Y153418D01*
X86402Y153834D01*
X85323Y153977D01*
D02*
G37*
G36*
X-69409Y148170D02*
X-70591D01*
X-71670Y148027D01*
X-72675Y147611D01*
X-73539Y146948D01*
X-74202Y146085D01*
X-74618Y145079D01*
X-74760Y144000D01*
X-74618Y142921D01*
X-74202Y141915D01*
X-73539Y141052D01*
X-72675Y140389D01*
X-71670Y139973D01*
X-70591Y139831D01*
X-69409D01*
X-68330Y139973D01*
X-67325Y140389D01*
X-66461Y141052D01*
X-65798Y141915D01*
X-65517Y142595D01*
X-54582D01*
X-44405Y132418D01*
Y131545D01*
X-44867Y131354D01*
X-48507Y134994D01*
X-48962Y135298D01*
X-49500Y135405D01*
X-65517D01*
X-65798Y136085D01*
X-66461Y136948D01*
X-67325Y137611D01*
X-68330Y138027D01*
X-69409Y138170D01*
X-70591D01*
X-71670Y138027D01*
X-72675Y137611D01*
X-73539Y136948D01*
X-74202Y136085D01*
X-74618Y135079D01*
X-74760Y134000D01*
X-74618Y132921D01*
X-74202Y131915D01*
X-73539Y131052D01*
X-72675Y130389D01*
X-71670Y129973D01*
X-70591Y129831D01*
X-69409D01*
X-68330Y129973D01*
X-67325Y130389D01*
X-66461Y131052D01*
X-65798Y131915D01*
X-65517Y132595D01*
X-50082D01*
X-46905Y129418D01*
Y78954D01*
X-47383Y78809D01*
X-47506Y78993D01*
X-78095Y109582D01*
Y127500D01*
X-78202Y128038D01*
X-78507Y128493D01*
X-81855Y131842D01*
X-81798Y131915D01*
X-81382Y132921D01*
X-81240Y134000D01*
X-81382Y135079D01*
X-81798Y136085D01*
X-82461Y136948D01*
X-83325Y137611D01*
X-84330Y138027D01*
X-85409Y138170D01*
X-86591D01*
X-87670Y138027D01*
X-88675Y137611D01*
X-89539Y136948D01*
X-90201Y136085D01*
X-90618Y135079D01*
X-90750Y134077D01*
X-90750D01*
X-91072D01*
X-91273Y134253D01*
X-91382Y135079D01*
X-91799Y136085D01*
X-92461Y136948D01*
X-93325Y137611D01*
X-94330Y138027D01*
X-95409Y138170D01*
X-96591D01*
X-97670Y138027D01*
X-98675Y137611D01*
X-99539Y136948D01*
X-100201Y136085D01*
X-100618Y135079D01*
X-100760Y134000D01*
X-100618Y132921D01*
X-100201Y131915D01*
X-99539Y131052D01*
X-98675Y130389D01*
X-97670Y129973D01*
X-96591Y129831D01*
X-95409D01*
X-94330Y129973D01*
X-94068Y130081D01*
X-92405Y128418D01*
Y126883D01*
X-92878Y126723D01*
X-93052Y126948D01*
X-93915Y127611D01*
X-94921Y128027D01*
X-96000Y128170D01*
X-97079Y128027D01*
X-98085Y127611D01*
X-98948Y126948D01*
X-99611Y126085D01*
X-100027Y125079D01*
X-100170Y124000D01*
X-100027Y122921D01*
X-99611Y121915D01*
X-98948Y121052D01*
X-98085Y120389D01*
X-97405Y120107D01*
Y99500D01*
X-97405Y99500D01*
X-97405D01*
X-97298Y98962D01*
X-96993Y98507D01*
X-68905Y70418D01*
Y61000D01*
X-68905Y61000D01*
X-68905D01*
X-68798Y60462D01*
X-68493Y60007D01*
X-61993Y53507D01*
X-61538Y53202D01*
X-61000Y53095D01*
X-60027D01*
X-60018Y53081D01*
X-59367Y52646D01*
X-58598Y52493D01*
X-55055D01*
X-54287Y52646D01*
X-53636Y53081D01*
X-53201Y53732D01*
X-53048Y54500D01*
X-53201Y55268D01*
X-53636Y55919D01*
X-54287Y56354D01*
X-55055Y56507D01*
X-58598D01*
X-59367Y56354D01*
X-60018Y55919D01*
X-60027Y55905D01*
X-60418D01*
X-66095Y61582D01*
Y71000D01*
X-66202Y71538D01*
X-66507Y71993D01*
X-94595Y100082D01*
Y120107D01*
X-93915Y120389D01*
X-93052Y121052D01*
X-92878Y121277D01*
X-92405Y121117D01*
Y102000D01*
X-92405Y102000D01*
X-92405D01*
X-92298Y101462D01*
X-91993Y101007D01*
X-87537Y96550D01*
X-87537Y96550D01*
X-87537D01*
Y96550D01*
X-87537Y96550D01*
X-85493Y94507D01*
X-58232Y67245D01*
Y61507D01*
X-58598D01*
X-59367Y61354D01*
X-60018Y60919D01*
X-60453Y60268D01*
X-60606Y59500D01*
X-60453Y58732D01*
X-60018Y58081D01*
X-59367Y57646D01*
X-58598Y57493D01*
X-55055D01*
X-54287Y57646D01*
X-53636Y58081D01*
X-53201Y58732D01*
X-53048Y59500D01*
X-53201Y60268D01*
X-53636Y60919D01*
X-54287Y61354D01*
X-55055Y61507D01*
X-55422D01*
Y67827D01*
X-55529Y68364D01*
X-55833Y68820D01*
X-83507Y96493D01*
X-85550Y98537D01*
X-89595Y102582D01*
Y120741D01*
X-89133Y120932D01*
X-88067Y119866D01*
X-87405D01*
Y107500D01*
X-87405Y107500D01*
X-87405D01*
X-87298Y106962D01*
X-86993Y106507D01*
X-82261Y101774D01*
X-80993Y100507D01*
X-52405Y71918D01*
Y43000D01*
X-52405Y43000D01*
X-52405D01*
X-52298Y42462D01*
X-51993Y42006D01*
X-43494Y33507D01*
X-43038Y33202D01*
X-42500Y33095D01*
X-38374D01*
X-38364Y33081D01*
X-37713Y32646D01*
X-36945Y32493D01*
X-33402D01*
X-32634Y32646D01*
X-31982Y33081D01*
X-31547Y33732D01*
X-31394Y34500D01*
X-31547Y35268D01*
X-31982Y35919D01*
X-32634Y36354D01*
X-33402Y36507D01*
X-36945D01*
X-37713Y36354D01*
X-38364Y35919D01*
X-38374Y35905D01*
X-41918D01*
X-49595Y43582D01*
Y46955D01*
X-49133Y47146D01*
X-40494Y38506D01*
X-40038Y38202D01*
X-39500Y38095D01*
X-38374D01*
X-38364Y38081D01*
X-37713Y37646D01*
X-36945Y37493D01*
X-33402D01*
X-32634Y37646D01*
X-31982Y38081D01*
X-31547Y38732D01*
X-31394Y39500D01*
X-31547Y40268D01*
X-31982Y40919D01*
X-32634Y41354D01*
X-33402Y41507D01*
X-36945D01*
X-37713Y41354D01*
X-38364Y40919D01*
X-38374Y40905D01*
X-38918D01*
X-47095Y49082D01*
Y50546D01*
X-46617Y50691D01*
X-46494Y50507D01*
X-39494Y43507D01*
X-39038Y43202D01*
X-38500Y43095D01*
X-38374D01*
X-38364Y43081D01*
X-37713Y42646D01*
X-36945Y42493D01*
X-33402D01*
X-32634Y42646D01*
X-31982Y43081D01*
X-31547Y43732D01*
X-31394Y44500D01*
X-31547Y45268D01*
X-31982Y45919D01*
X-32634Y46354D01*
X-33402Y46507D01*
X-36945D01*
X-37713Y46354D01*
X-38105Y46092D01*
X-44095Y52082D01*
Y53455D01*
X-43633Y53646D01*
X-38819Y48832D01*
X-38799Y48732D01*
X-38364Y48081D01*
X-37713Y47646D01*
X-36945Y47493D01*
X-33402D01*
X-32634Y47646D01*
X-31982Y48081D01*
X-31547Y48732D01*
X-31394Y49500D01*
X-31547Y50268D01*
X-31982Y50919D01*
X-32634Y51354D01*
X-33402Y51507D01*
X-36945D01*
X-37425Y51412D01*
X-39038Y53025D01*
X-39000Y53095D01*
X-38374D01*
X-38364Y53081D01*
X-37713Y52646D01*
X-36945Y52493D01*
X-33402D01*
X-32634Y52646D01*
X-31982Y53081D01*
X-31547Y53732D01*
X-31394Y54500D01*
X-31547Y55268D01*
X-31982Y55919D01*
X-32634Y56354D01*
X-33402Y56507D01*
X-36945D01*
X-37713Y56354D01*
X-38364Y55919D01*
X-38570Y56057D01*
X-39095Y56582D01*
Y58314D01*
X-38617Y58459D01*
X-38364Y58081D01*
X-37713Y57646D01*
X-36945Y57493D01*
X-33402D01*
X-32634Y57646D01*
X-31982Y58081D01*
X-31973Y58095D01*
X-29582D01*
X-24905Y53418D01*
Y-27000D01*
Y-29500D01*
Y-35418D01*
X-51582Y-62095D01*
X-75549D01*
X-75749Y-61614D01*
X-76348Y-60833D01*
X-77130Y-60233D01*
X-78039Y-59856D01*
X-79016Y-59728D01*
X-80984D01*
X-81961Y-59856D01*
X-82871Y-60233D01*
X-83652Y-60833D01*
X-84251Y-61614D01*
X-84628Y-62524D01*
X-84757Y-63500D01*
X-84628Y-64476D01*
X-84251Y-65386D01*
X-83652Y-66167D01*
X-82871Y-66767D01*
X-81961Y-67144D01*
X-80984Y-67272D01*
X-79016D01*
X-78039Y-67144D01*
X-77130Y-66767D01*
X-76348Y-66167D01*
X-75749Y-65386D01*
X-75549Y-64905D01*
X-51000D01*
X-50462Y-64798D01*
X-50007Y-64493D01*
X-50007Y-64494D01*
X-50007Y-64493D01*
X-22506Y-36994D01*
X-22202Y-36538D01*
X-22095Y-36000D01*
X-22095Y-36000D01*
X-22095Y-36000D01*
Y-36000D01*
Y-27000D01*
Y54000D01*
X-22202Y54538D01*
X-22506Y54993D01*
X-28007Y60493D01*
X-28462Y60798D01*
X-29000Y60905D01*
X-31973D01*
X-31982Y60919D01*
X-32634Y61354D01*
X-33402Y61507D01*
X-36945D01*
X-37713Y61354D01*
X-38364Y60919D01*
X-38617Y60541D01*
X-39095Y60686D01*
Y62918D01*
X-37918Y64095D01*
X-22082D01*
X-15405Y57418D01*
Y-34500D01*
Y-37000D01*
Y-42918D01*
X-44582Y-72095D01*
X-75549D01*
X-75749Y-71614D01*
X-76348Y-70833D01*
X-77130Y-70233D01*
X-78039Y-69856D01*
X-79016Y-69728D01*
X-80984D01*
X-81961Y-69856D01*
X-82871Y-70233D01*
X-83652Y-70833D01*
X-84251Y-71614D01*
X-84628Y-72524D01*
X-84757Y-73500D01*
X-84628Y-74476D01*
X-84251Y-75386D01*
X-83652Y-76168D01*
X-82871Y-76767D01*
X-81961Y-77144D01*
X-80984Y-77272D01*
X-79016D01*
X-78039Y-77144D01*
X-77130Y-76767D01*
X-76348Y-76168D01*
X-75749Y-75386D01*
X-75549Y-74905D01*
X-44000D01*
X-43462Y-74798D01*
X-43007Y-74493D01*
X-43007Y-74493D01*
X-43007Y-74493D01*
X-13006Y-44493D01*
X-12702Y-44038D01*
X-12595Y-43500D01*
X-12595Y-43500D01*
X-12595Y-43500D01*
Y-43500D01*
Y-34500D01*
Y58000D01*
X-12702Y58538D01*
X-13006Y58993D01*
X-20506Y66493D01*
X-20962Y66798D01*
X-21500Y66905D01*
X-38500D01*
X-39038Y66798D01*
X-39494Y66493D01*
X-41133Y64854D01*
X-41595Y65045D01*
Y133000D01*
X-41702Y133538D01*
X-42006Y133993D01*
X-53007Y144993D01*
X-53462Y145298D01*
X-54000Y145405D01*
X-65517D01*
X-65798Y146085D01*
X-66461Y146948D01*
X-67325Y147611D01*
X-68330Y148027D01*
X-69409Y148170D01*
D02*
G37*
G36*
X85323Y123977D02*
X84142D01*
X83063Y123835D01*
X82057Y123418D01*
X81193Y122755D01*
X80531Y121892D01*
X80114Y120886D01*
X79972Y119807D01*
X80114Y118728D01*
X80531Y117722D01*
X81193Y116859D01*
X82057Y116196D01*
X83063Y115780D01*
X84142Y115638D01*
X85323D01*
X86402Y115780D01*
X87408Y116196D01*
X88271Y116859D01*
X88858Y117623D01*
X89357Y117656D01*
X95095Y111918D01*
Y-39500D01*
Y-40500D01*
Y-42202D01*
X94603Y-42267D01*
X94127Y-41117D01*
X93370Y-40130D01*
X92383Y-39373D01*
X91233Y-38897D01*
X90000Y-38735D01*
X88767Y-38897D01*
X87617Y-39373D01*
X86630Y-40130D01*
X85873Y-41117D01*
X85397Y-42267D01*
X85250Y-43385D01*
X85250D01*
X84850D01*
X84737Y-43286D01*
X84603Y-42267D01*
X84127Y-41117D01*
X83369Y-40130D01*
X82383Y-39373D01*
X81233Y-38897D01*
X80115Y-38750D01*
Y-38250D01*
X81233Y-38103D01*
X82383Y-37627D01*
X83369Y-36869D01*
X84127Y-35883D01*
X84603Y-34733D01*
X84765Y-33500D01*
X84603Y-32267D01*
X84127Y-31117D01*
X83369Y-30130D01*
X82383Y-29373D01*
X81233Y-28897D01*
X80000Y-28735D01*
X78767Y-28897D01*
X77617Y-29373D01*
X76631Y-30130D01*
X75873Y-31117D01*
X75397Y-32267D01*
X75235Y-33500D01*
X75397Y-34733D01*
X75873Y-35883D01*
X76631Y-36869D01*
X77617Y-37627D01*
X78767Y-38103D01*
X79885Y-38250D01*
Y-38750D01*
X78767Y-38897D01*
X77617Y-39373D01*
X76631Y-40130D01*
X75873Y-41117D01*
X75397Y-42267D01*
X75235Y-43500D01*
X75397Y-44733D01*
X75873Y-45883D01*
X76631Y-46870D01*
X77617Y-47627D01*
X78767Y-48103D01*
X80000Y-48265D01*
X81233Y-48103D01*
X82383Y-47627D01*
X83369Y-46870D01*
X84127Y-45883D01*
X84603Y-44733D01*
X84750Y-43615D01*
X85150D01*
X85263Y-43714D01*
X85397Y-44733D01*
X85873Y-45883D01*
X86630Y-46870D01*
X87617Y-47627D01*
X88767Y-48103D01*
X90000Y-48265D01*
X91233Y-48103D01*
X92383Y-47627D01*
X93370Y-46870D01*
X94127Y-45883D01*
X94603Y-44733D01*
X95095Y-44798D01*
Y-46418D01*
X91692Y-49821D01*
X90984Y-49728D01*
X89016D01*
X88039Y-49856D01*
X87129Y-50233D01*
X86348Y-50832D01*
X85749Y-51614D01*
X85372Y-52524D01*
X85250Y-53449D01*
X85250D01*
X84980D01*
X84720Y-53221D01*
X84628Y-52524D01*
X84251Y-51614D01*
X83652Y-50832D01*
X82871Y-50233D01*
X81961Y-49856D01*
X80984Y-49728D01*
X79016D01*
X78039Y-49856D01*
X77130Y-50233D01*
X76348Y-50832D01*
X75749Y-51614D01*
X75372Y-52524D01*
X75243Y-53500D01*
X75372Y-54476D01*
X75749Y-55386D01*
X76348Y-56168D01*
X77130Y-56767D01*
X78039Y-57144D01*
X79016Y-57272D01*
X80984D01*
X81961Y-57144D01*
X82871Y-56767D01*
X83652Y-56168D01*
X84251Y-55386D01*
X84628Y-54476D01*
X84750Y-53551D01*
X85020D01*
X85280Y-53779D01*
X85372Y-54476D01*
X85749Y-55386D01*
X86348Y-56168D01*
X87129Y-56767D01*
X88039Y-57144D01*
X89016Y-57272D01*
X90984D01*
X91961Y-57144D01*
X92870Y-56767D01*
X93652Y-56168D01*
X94251Y-55386D01*
X94628Y-54476D01*
X94757Y-53500D01*
X94628Y-52524D01*
X94251Y-51614D01*
X94087Y-51400D01*
X97493Y-47993D01*
X97798Y-47538D01*
X97905Y-47000D01*
X97905Y-47000D01*
X97905Y-47000D01*
Y-47000D01*
Y-39500D01*
Y112500D01*
X97798Y113038D01*
X97493Y113494D01*
X90186Y120800D01*
X89731Y121105D01*
X89217Y121207D01*
X88934Y121892D01*
X88271Y122755D01*
X87408Y123418D01*
X86402Y123835D01*
X85323Y123977D01*
D02*
G37*
G36*
X-90000Y-39728D02*
X-90976Y-39856D01*
X-91886Y-40233D01*
X-92668Y-40832D01*
X-93267Y-41614D01*
X-93644Y-42524D01*
X-93772Y-43500D01*
X-93644Y-44476D01*
X-93267Y-45386D01*
X-92668Y-46167D01*
X-91886Y-46767D01*
X-90976Y-47144D01*
X-90000Y-47272D01*
X-89024Y-47144D01*
X-88114Y-46767D01*
X-87332Y-46167D01*
X-86733Y-45386D01*
X-86356Y-44476D01*
X-86228Y-43500D01*
X-86356Y-42524D01*
X-86733Y-41614D01*
X-87332Y-40832D01*
X-88114Y-40233D01*
X-89024Y-39856D01*
X-90000Y-39728D01*
D02*
G37*
G36*
X-80000Y-49728D02*
X-80976Y-49856D01*
X-81886Y-50233D01*
X-82667Y-50832D01*
X-83267Y-51614D01*
X-83644Y-52524D01*
X-83772Y-53500D01*
X-83644Y-54476D01*
X-83267Y-55386D01*
X-82667Y-56168D01*
X-81886Y-56767D01*
X-80976Y-57144D01*
X-80000Y-57272D01*
X-79024Y-57144D01*
X-78114Y-56767D01*
X-77333Y-56168D01*
X-76733Y-55386D01*
X-76356Y-54476D01*
X-76228Y-53500D01*
X-76356Y-52524D01*
X-76733Y-51614D01*
X-77333Y-50832D01*
X-78114Y-50233D01*
X-79024Y-49856D01*
X-80000Y-49728D01*
D02*
G37*
G36*
X-90000Y-5184D02*
X-90858Y-5297D01*
X-91658Y-5629D01*
X-92345Y-6155D01*
X-92871Y-6842D01*
X-93203Y-7642D01*
X-93316Y-8500D01*
X-93203Y-9358D01*
X-92871Y-10158D01*
X-92345Y-10845D01*
X-91806Y-11258D01*
Y-28776D01*
X-94724D01*
Y-38224D01*
X-85276D01*
Y-28776D01*
X-88194D01*
Y-11258D01*
X-87655Y-10845D01*
X-87129Y-10158D01*
X-86797Y-9358D01*
X-86684Y-8500D01*
X-86797Y-7642D01*
X-87129Y-6842D01*
X-87655Y-6155D01*
X-88342Y-5629D01*
X-89142Y-5297D01*
X-90000Y-5184D01*
D02*
G37*
G36*
X-80252Y35547D02*
X-86158D01*
Y28067D01*
X-84984D01*
X-84874Y27514D01*
X-84482Y26927D01*
X-80777Y23223D01*
X-80191Y22831D01*
X-79500Y22694D01*
X-59438D01*
X-59367Y22646D01*
X-58598Y22493D01*
X-55055D01*
X-54287Y22646D01*
X-53636Y23081D01*
X-53201Y23732D01*
X-53048Y24500D01*
X-53201Y25268D01*
X-53636Y25919D01*
X-54287Y26354D01*
X-55055Y26507D01*
X-58598D01*
X-59367Y26354D01*
X-59438Y26306D01*
X-78752D01*
X-80328Y27883D01*
X-80252Y28067D01*
X-80252D01*
X-80252Y28067D01*
Y35547D01*
D02*
G37*
G36*
X-55055Y31507D02*
X-58598D01*
X-59367Y31354D01*
X-60018Y30919D01*
X-60453Y30268D01*
X-60606Y29500D01*
X-60453Y28732D01*
X-60018Y28081D01*
X-59367Y27646D01*
X-58598Y27493D01*
X-55055D01*
X-54287Y27646D01*
X-54215Y27694D01*
X-53748D01*
X-52306Y26252D01*
Y20748D01*
X-54441Y18613D01*
X-72378D01*
Y20547D01*
X-78284D01*
Y13067D01*
X-72378D01*
Y15001D01*
X-53693D01*
X-53002Y15138D01*
X-52416Y15530D01*
X-49223Y18723D01*
X-48831Y19309D01*
X-48694Y20000D01*
X-48694Y20000D01*
X-48694Y20000D01*
Y20000D01*
Y27000D01*
X-48831Y27691D01*
X-49223Y28277D01*
X-51723Y30777D01*
X-52309Y31169D01*
X-53000Y31306D01*
X-54215D01*
X-54287Y31354D01*
X-55055Y31507D01*
D02*
G37*
G36*
X-33402Y26507D02*
X-36945D01*
X-37713Y26354D01*
X-38364Y25919D01*
X-38799Y25268D01*
X-38952Y24500D01*
X-38799Y23732D01*
X-38364Y23081D01*
X-37713Y22646D01*
X-36945Y22493D01*
X-36806D01*
Y16890D01*
X-38740D01*
Y15743D01*
X-41063D01*
X-41754Y15606D01*
X-42340Y15214D01*
X-54777Y2777D01*
X-55169Y2191D01*
X-55306Y1500D01*
Y-5000D01*
Y-9000D01*
Y-14742D01*
X-55845Y-15155D01*
X-56371Y-15842D01*
X-56703Y-16642D01*
X-56816Y-17500D01*
X-56703Y-18358D01*
X-56371Y-19158D01*
X-56280Y-19278D01*
Y-31610D01*
X-57740D01*
Y-31783D01*
X-60260D01*
Y-31610D01*
X-67740D01*
Y-31783D01*
X-75276D01*
Y-28776D01*
X-84724D01*
Y-38224D01*
X-75276D01*
Y-37343D01*
X-67740D01*
Y-37516D01*
X-60260D01*
Y-37343D01*
X-57740D01*
Y-37516D01*
X-50260D01*
Y-31610D01*
X-50720D01*
Y-19278D01*
X-50629Y-19158D01*
X-50297Y-18358D01*
X-50184Y-17500D01*
X-50297Y-16642D01*
X-50629Y-15842D01*
X-51155Y-15155D01*
X-51694Y-14742D01*
Y-9000D01*
Y752D01*
X-40315Y12131D01*
X-38740D01*
Y10984D01*
X-31260D01*
Y16890D01*
X-33194D01*
Y22534D01*
X-32634Y22646D01*
X-31982Y23081D01*
X-31547Y23732D01*
X-31394Y24500D01*
X-31547Y25268D01*
X-31982Y25919D01*
X-32634Y26354D01*
X-33402Y26507D01*
D02*
G37*
%LPD*%
D10*
X84732Y-8768D02*
Y99807D01*
X-53500Y-9000D02*
Y-5000D01*
Y-17500D02*
Y-9000D01*
Y1500D01*
X-41063Y13937D01*
X2000Y-64000D02*
Y-54000D01*
Y163000D01*
Y-57500D02*
Y-54000D01*
X-56827Y29500D02*
X-53000D01*
X-50500Y27000D01*
Y20000D02*
Y27000D01*
X-53693Y16807D02*
X-50500Y20000D01*
X-75331Y16807D02*
X-53693D01*
X-79500Y24500D02*
X-56827D01*
X-83205Y28205D02*
X-79500Y24500D01*
X-83205Y28205D02*
Y31807D01*
X-72638Y34500D02*
X-56827D01*
X-75331Y31807D02*
X-72638Y34500D01*
X-81000Y39500D02*
X-56827D01*
X-83205Y41705D02*
X-81000Y39500D01*
X-83205Y41705D02*
Y46807D01*
X-73024Y44500D02*
X-56827D01*
X-75331Y46807D02*
X-73024Y44500D01*
X-64000Y49500D02*
X-56827D01*
X-75331Y60831D02*
X-64000Y49500D01*
X-75331Y60831D02*
Y61807D01*
X-80000Y-103500D02*
X-37500D01*
X-6268Y171268D02*
Y193307D01*
X-37500Y-103500D02*
X2000Y-64000D01*
X-6268Y171268D02*
X2000Y163000D01*
X-80000Y-113500D02*
X-25000D01*
X12500Y-76000D01*
X3732Y174268D02*
Y193307D01*
Y174268D02*
X12500Y165500D01*
Y-76000D02*
Y165500D01*
X-41063Y13937D02*
X-35000D01*
Y24327D01*
X-35173Y24500D02*
X-35000Y24327D01*
X7827Y199213D02*
X13732Y193307D01*
X-90000Y-33500D02*
Y-8500D01*
X84500Y99575D02*
X84732Y99807D01*
X74000Y103500D02*
X77693Y99807D01*
X74000Y103500D02*
Y136500D01*
X77307Y139807D01*
X84732D01*
X76807Y159807D02*
X84732D01*
X73500Y156500D02*
X76807Y159807D01*
X73500Y143614D02*
Y156500D01*
Y143614D02*
X77307Y139807D01*
X-78000Y151000D02*
X-29787Y199213D01*
X7827D01*
X-78000Y132000D02*
Y151000D01*
Y132000D02*
X-70000Y124000D01*
X77693Y99807D02*
X84732D01*
D11*
X29500Y-17500D02*
Y-4500D01*
Y193012D01*
Y-11000D02*
Y-4500D01*
Y-106752D02*
Y-17500D01*
X-32000Y-168252D02*
X29500Y-106752D01*
X-32000Y-174252D02*
Y-168252D01*
Y-190000D02*
X-10000D01*
X-53500Y-34063D02*
Y-17500D01*
X-54000Y-34563D02*
X-53500Y-34063D01*
X-80000Y-33500D02*
X-78937Y-34563D01*
X-64000D01*
X-54000D01*
X29500Y193012D02*
X29795Y193307D01*
X13732D02*
X29795D01*
D12*
X-70000Y114000D02*
D03*
X84732Y99807D02*
D03*
D13*
X-70000Y124000D02*
D03*
Y134000D02*
D03*
Y144000D02*
D03*
X84732Y119807D02*
D03*
Y109807D02*
D03*
Y129807D02*
D03*
Y139807D02*
D03*
Y149807D02*
D03*
Y159807D02*
D03*
X-86000Y134000D02*
D03*
Y144000D02*
D03*
X-96000Y134000D02*
D03*
Y144000D02*
D03*
D14*
X-10000Y-190000D02*
D03*
X13732Y193307D02*
D03*
D15*
X0Y-190000D02*
D03*
X3732Y193307D02*
D03*
X-6268D02*
D03*
X-16268D02*
D03*
D16*
X-86000Y124000D02*
D03*
D17*
X-96000D02*
D03*
D18*
X80000Y-123500D02*
D03*
Y-113500D02*
D03*
Y-103500D02*
D03*
Y-93500D02*
D03*
Y-83500D02*
D03*
Y-73500D02*
D03*
Y-43500D02*
D03*
Y-33500D02*
D03*
X90000Y-123500D02*
D03*
Y-113500D02*
D03*
Y-103500D02*
D03*
Y-93500D02*
D03*
Y-83500D02*
D03*
Y-73500D02*
D03*
Y-43500D02*
D03*
Y-33500D02*
D03*
X-90000Y-123500D02*
D03*
X-80000D02*
D03*
Y-43500D02*
D03*
D19*
X80000Y-63500D02*
D03*
Y-53500D02*
D03*
X90000Y-63500D02*
D03*
Y-53500D02*
D03*
X-80000Y-113500D02*
D03*
Y-103500D02*
D03*
Y-73500D02*
D03*
Y-63500D02*
D03*
D20*
X-90000Y-113500D02*
D03*
Y-103500D02*
D03*
Y-93500D02*
D03*
Y-83500D02*
D03*
Y-73500D02*
D03*
Y-63500D02*
D03*
Y-53500D02*
D03*
Y-43500D02*
D03*
X-80000Y-93500D02*
D03*
Y-83500D02*
D03*
Y-53500D02*
D03*
D21*
X-90000Y-33500D02*
D03*
X-80000D02*
D03*
D22*
X84732Y-8768D02*
D03*
X29500Y-17500D02*
D03*
X-53500D02*
D03*
X-90000Y-8500D02*
D03*
D23*
X-35173Y59500D02*
D03*
Y54500D02*
D03*
Y49500D02*
D03*
Y44500D02*
D03*
Y39500D02*
D03*
Y34500D02*
D03*
Y29500D02*
D03*
Y24500D02*
D03*
X-56827Y59500D02*
D03*
Y54500D02*
D03*
Y49500D02*
D03*
Y44500D02*
D03*
Y39500D02*
D03*
Y34500D02*
D03*
Y29500D02*
D03*
Y24500D02*
D03*
D24*
X-32000Y-190000D02*
D03*
Y-174252D02*
D03*
D25*
X-83205Y61807D02*
D03*
X-75331D02*
D03*
X-83205Y16807D02*
D03*
X-75331D02*
D03*
X-83205Y31807D02*
D03*
X-75331D02*
D03*
Y46807D02*
D03*
X-83205D02*
D03*
X83937Y87500D02*
D03*
X76063D02*
D03*
X29795Y193307D02*
D03*
X37669D02*
D03*
D26*
X-64000Y-34563D02*
D03*
Y-42437D02*
D03*
X-35000Y6063D02*
D03*
Y13937D02*
D03*
X-54000Y-34563D02*
D03*
Y-42437D02*
D03*
D27*
X-79500Y109000D02*
X-48500Y78000D01*
X-79500Y109000D02*
Y127500D01*
X-48500Y48500D02*
Y78000D01*
X84732Y129807D02*
X97693D01*
X103000Y124500D01*
Y107500D02*
Y124500D01*
Y107500D02*
Y123000D01*
Y-47000D02*
Y107500D01*
X84732Y119807D02*
X89193D01*
X96500Y112500D01*
Y-39500D02*
Y112500D01*
Y-63500D02*
X103000Y-57000D01*
Y-47000D01*
Y-50500D02*
Y-47000D01*
X90000Y-53500D02*
X96500Y-47000D01*
Y-39500D01*
Y-40500D02*
Y-39500D01*
X-51000Y-63500D02*
X-23500Y-36000D01*
Y-27000D01*
Y54000D01*
Y-29500D02*
Y-27000D01*
X-44000Y-73500D02*
X-14000Y-43500D01*
Y-34500D01*
Y58000D01*
Y-37000D02*
Y-34500D01*
X-37500Y49500D02*
X-35173D01*
X-38500Y44500D02*
X-35173D01*
X-39500Y39500D02*
X-35173D01*
X-42500Y34500D02*
X-35173D01*
X-51000Y43000D02*
X-42500Y34500D01*
X-51000Y43000D02*
Y72500D01*
X-48500Y48500D02*
X-39500Y39500D01*
X-45500Y51500D02*
X-38500Y44500D01*
X-45500Y51500D02*
Y130000D01*
X-80000Y-63500D02*
X-51000D01*
X-29000Y59500D02*
X-23500Y54000D01*
X-35173Y59500D02*
X-29000D01*
X-80000Y-73500D02*
X-44000D01*
X-21500Y65500D02*
X-14000Y58000D01*
X-38500Y65500D02*
X-21500D01*
X-39000Y54500D02*
X-35173D01*
X-43000Y55000D02*
X-37500Y49500D01*
X-43000Y55000D02*
Y133000D01*
X-40500Y56000D02*
X-39000Y54500D01*
X-40500Y56000D02*
Y63500D01*
X-38500Y65500D01*
X-56827Y59500D02*
Y67827D01*
X-61000Y54500D02*
X-56827D01*
X-67500Y61000D02*
X-61000Y54500D01*
X-67500Y61000D02*
Y71000D01*
X90000Y-63500D02*
X96500D01*
X-54000Y144000D02*
X-43000Y133000D01*
X-70000Y144000D02*
X-54000D01*
X-49500Y134000D02*
X-45500Y130000D01*
X-70000Y134000D02*
X-49500D01*
X-86000D02*
X-79500Y127500D01*
X-81268Y102768D02*
X-80000Y101500D01*
X-51000Y72500D01*
X-86000Y107500D02*
X-80000Y101500D01*
X-86000Y107500D02*
Y124000D01*
X-86543Y97543D02*
X-84500Y95500D01*
X-56827Y67827D01*
X-91000Y102000D02*
X-84500Y95500D01*
X-91000Y102000D02*
Y129000D01*
X-96000Y134000D02*
X-91000Y129000D01*
X-96000Y99500D02*
X-67500Y71000D01*
X-96000Y99500D02*
Y124000D01*
M02*
